<?xml version="1.0" encoding="utf-8"?>
<!-- Generator: Adobe Illustrator 16.0.3, SVG Export Plug-In . SVG Version: 6.00 Build 0)  -->
<!DOCTYPE svg PUBLIC "-//W3C//DTD SVG 1.1//EN" "http://www.w3.org/Graphics/SVG/1.1/DTD/svg11.dtd">
<svg version="1.1" xmlns="http://www.w3.org/2000/svg" xmlns:xlink="http://www.w3.org/1999/xlink" x="0px" y="0px"
	 width="595.28px" height="841.89px" viewBox="0 0 595.28 841.89" enable-background="new 0 0 595.28 841.89" xml:space="preserve">
<g id="Layer_1">
	<g>
		<g>
			
				<rect x="92.406" y="22.334" transform="matrix(0.7071 -0.7071 0.7071 0.7071 8.7807 77.8927)" stroke="#000000" stroke-width="0.001" stroke-miterlimit="10" width="12.026" height="12.026"/>
			<polyline stroke="#000000" stroke-width="0.001" stroke-miterlimit="10" points="116.333,36.85 107.83,28.347 116.333,19.843 
				124.837,28.347 116.333,36.85 			"/>
			<polyline stroke="#000000" stroke-width="0.001" stroke-miterlimit="10" points="134.249,36.85 125.745,28.347 134.249,19.843 
				142.752,28.347 134.249,36.85 			"/>
			<polyline stroke="#000000" stroke-width="0.001" stroke-miterlimit="10" points="152.164,36.85 143.66,28.347 152.164,19.843 
				160.667,28.347 152.164,36.85 			"/>
			<polyline stroke="#000000" stroke-width="0.001" stroke-miterlimit="10" points="170.079,36.85 161.575,28.347 170.079,19.843 
				178.583,28.347 170.079,36.85 			"/>
			<polyline stroke="#000000" stroke-width="0.001" stroke-miterlimit="10" points="187.994,36.85 179.49,28.347 187.994,19.843 
				196.498,28.347 187.994,36.85 			"/>
			<polyline stroke="#000000" stroke-width="0.001" stroke-miterlimit="10" points="205.909,36.85 197.405,28.347 205.909,19.843 
				214.413,28.347 205.909,36.85 			"/>
			<polyline stroke="#000000" stroke-width="0.001" stroke-miterlimit="10" points="223.823,36.85 215.319,28.347 223.823,19.843 
				232.327,28.347 223.823,36.85 			"/>
			<polyline stroke="#000000" stroke-width="0.001" stroke-miterlimit="10" points="241.738,36.85 233.234,28.347 241.738,19.843 
				250.242,28.347 241.738,36.85 			"/>
			<rect x="98.419" y="27.851" stroke="#000000" stroke-width="0.001" stroke-miterlimit="10" width="143.32" height="0.992"/>
			
				<rect x="92.406" y="40.248" transform="matrix(0.7071 -0.7071 0.7071 0.7071 -3.8865 83.1394)" stroke="#000000" stroke-width="0.001" stroke-miterlimit="10" width="12.026" height="12.026"/>
			<polyline stroke="#000000" stroke-width="0.001" stroke-miterlimit="10" points="116.333,54.765 107.83,46.261 116.333,37.758 
				124.837,46.261 116.333,54.765 			"/>
			<polyline stroke="#000000" stroke-width="0.001" stroke-miterlimit="10" points="134.249,54.765 125.745,46.261 134.249,37.758 
				142.752,46.261 134.249,54.765 			"/>
			<polyline stroke="#000000" stroke-width="0.001" stroke-miterlimit="10" points="152.164,54.765 143.66,46.261 152.164,37.758 
				160.667,46.261 152.164,54.765 			"/>
			<polyline stroke="#000000" stroke-width="0.001" stroke-miterlimit="10" points="170.079,54.765 161.575,46.261 170.079,37.758 
				178.583,46.261 170.079,54.765 			"/>
			<polyline stroke="#000000" stroke-width="0.001" stroke-miterlimit="10" points="187.994,54.765 179.49,46.261 187.994,37.758 
				196.498,46.261 187.994,54.765 			"/>
			<polyline stroke="#000000" stroke-width="0.001" stroke-miterlimit="10" points="205.909,54.765 197.405,46.261 205.909,37.758 
				214.413,46.261 205.909,54.765 			"/>
			<polyline stroke="#000000" stroke-width="0.001" stroke-miterlimit="10" points="223.823,54.765 215.319,46.261 223.823,37.758 
				232.327,46.261 223.823,54.765 			"/>
			<polyline stroke="#000000" stroke-width="0.001" stroke-miterlimit="10" points="241.738,54.765 233.234,46.261 241.738,37.758 
				250.242,46.261 241.738,54.765 			"/>
			<rect x="98.419" y="45.765" stroke="#000000" stroke-width="0.001" stroke-miterlimit="10" width="143.32" height="0.992"/>
			
				<rect x="92.406" y="58.163" transform="matrix(0.7071 -0.7071 0.7071 0.7071 -16.5539 88.3862)" stroke="#000000" stroke-width="0.001" stroke-miterlimit="10" width="12.026" height="12.026"/>
			<polyline stroke="#000000" stroke-width="0.001" stroke-miterlimit="10" points="116.333,72.68 107.83,64.176 116.333,55.673 
				124.837,64.176 116.333,72.68 			"/>
			<polyline stroke="#000000" stroke-width="0.001" stroke-miterlimit="10" points="134.249,72.68 125.745,64.176 134.249,55.673 
				142.752,64.176 134.249,72.68 			"/>
			<polyline stroke="#000000" stroke-width="0.001" stroke-miterlimit="10" points="152.164,72.68 143.66,64.176 152.164,55.673 
				160.667,64.176 152.164,72.68 			"/>
			<polyline stroke="#000000" stroke-width="0.001" stroke-miterlimit="10" points="170.079,72.68 161.575,64.176 170.079,55.673 
				178.583,64.176 170.079,72.68 			"/>
			<polyline stroke="#000000" stroke-width="0.001" stroke-miterlimit="10" points="187.994,72.68 179.49,64.176 187.994,55.673 
				196.498,64.176 187.994,72.68 			"/>
			<polyline stroke="#000000" stroke-width="0.001" stroke-miterlimit="10" points="205.909,72.68 197.405,64.176 205.909,55.673 
				214.413,64.176 205.909,72.68 			"/>
			<polyline stroke="#000000" stroke-width="0.001" stroke-miterlimit="10" points="223.823,72.68 215.319,64.176 223.823,55.673 
				232.327,64.176 223.823,72.68 			"/>
			<polyline stroke="#000000" stroke-width="0.001" stroke-miterlimit="10" points="241.738,72.68 233.234,64.176 241.738,55.673 
				250.242,64.176 241.738,72.68 			"/>
			<rect x="98.419" y="63.68" stroke="#000000" stroke-width="0.001" stroke-miterlimit="10" width="143.32" height="0.992"/>
			
				<rect x="92.406" y="76.078" transform="matrix(0.7071 -0.7071 0.7071 0.7071 -29.2214 93.633)" stroke="#000000" stroke-width="0.001" stroke-miterlimit="10" width="12.026" height="12.026"/>
			<polyline stroke="#000000" stroke-width="0.001" stroke-miterlimit="10" points="116.333,90.595 107.83,82.091 116.333,73.588 
				124.837,82.091 116.333,90.595 			"/>
			<polyline stroke="#000000" stroke-width="0.001" stroke-miterlimit="10" points="134.249,90.595 125.745,82.091 134.249,73.588 
				142.752,82.091 134.249,90.595 			"/>
			<polyline stroke="#000000" stroke-width="0.001" stroke-miterlimit="10" points="152.164,90.595 143.66,82.091 152.164,73.588 
				160.667,82.091 152.164,90.595 			"/>
			<polyline stroke="#000000" stroke-width="0.001" stroke-miterlimit="10" points="170.079,90.595 161.575,82.091 170.079,73.588 
				178.583,82.091 170.079,90.595 			"/>
			<polyline stroke="#000000" stroke-width="0.001" stroke-miterlimit="10" points="187.994,90.595 179.49,82.091 187.994,73.588 
				196.498,82.091 187.994,90.595 			"/>
			<polyline stroke="#000000" stroke-width="0.001" stroke-miterlimit="10" points="205.909,90.595 197.405,82.091 205.909,73.588 
				214.413,82.091 205.909,90.595 			"/>
			<polyline stroke="#000000" stroke-width="0.001" stroke-miterlimit="10" points="223.823,90.595 215.319,82.091 223.823,73.588 
				232.327,82.091 223.823,90.595 			"/>
			<polyline stroke="#000000" stroke-width="0.001" stroke-miterlimit="10" points="241.738,90.595 233.234,82.091 241.738,73.588 
				250.242,82.091 241.738,90.595 			"/>
			<rect x="98.419" y="81.595" stroke="#000000" stroke-width="0.001" stroke-miterlimit="10" width="143.32" height="0.992"/>
			
				<rect x="92.406" y="93.993" transform="matrix(0.7071 -0.7071 0.7071 0.7071 -41.8889 98.8799)" stroke="#000000" stroke-width="0.001" stroke-miterlimit="10" width="12.026" height="12.026"/>
			<polyline stroke="#000000" stroke-width="0.001" stroke-miterlimit="10" points="116.333,108.51 107.83,100.006 116.333,91.503 
				124.837,100.006 116.333,108.51 			"/>
			<polyline stroke="#000000" stroke-width="0.001" stroke-miterlimit="10" points="134.249,108.51 125.745,100.006 134.249,91.503 
				142.752,100.006 134.249,108.51 			"/>
			<polyline stroke="#000000" stroke-width="0.001" stroke-miterlimit="10" points="152.164,108.51 143.66,100.006 152.164,91.503 
				160.667,100.006 152.164,108.51 			"/>
			<polyline stroke="#000000" stroke-width="0.001" stroke-miterlimit="10" points="170.079,108.51 161.575,100.006 170.079,91.503 
				178.583,100.006 170.079,108.51 			"/>
			<polyline stroke="#000000" stroke-width="0.001" stroke-miterlimit="10" points="187.994,108.51 179.49,100.006 187.994,91.503 
				196.498,100.006 187.994,108.51 			"/>
			<polyline stroke="#000000" stroke-width="0.001" stroke-miterlimit="10" points="205.909,108.51 197.405,100.006 205.909,91.503 
				214.413,100.006 205.909,108.51 			"/>
			<polyline stroke="#000000" stroke-width="0.001" stroke-miterlimit="10" points="223.823,108.51 215.319,100.006 223.823,91.503 
				232.327,100.006 223.823,108.51 			"/>
			<polyline stroke="#000000" stroke-width="0.001" stroke-miterlimit="10" points="241.738,108.51 233.234,100.006 241.738,91.503 
				250.242,100.006 241.738,108.51 			"/>
			<rect x="98.419" y="99.51" stroke="#000000" stroke-width="0.001" stroke-miterlimit="10" width="143.32" height="0.992"/>
			
				<rect x="92.406" y="111.908" transform="matrix(0.7071 -0.7071 0.7071 0.7071 -54.5564 104.1267)" stroke="#000000" stroke-width="0.001" stroke-miterlimit="10" width="12.026" height="12.026"/>
			<polyline stroke="#000000" stroke-width="0.001" stroke-miterlimit="10" points="116.333,126.425 107.83,117.921 
				116.333,109.418 124.837,117.921 116.333,126.425 			"/>
			<polyline stroke="#000000" stroke-width="0.001" stroke-miterlimit="10" points="134.249,126.425 125.745,117.921 
				134.249,109.418 142.752,117.921 134.249,126.425 			"/>
			<polyline stroke="#000000" stroke-width="0.001" stroke-miterlimit="10" points="152.164,126.425 143.66,117.921 
				152.164,109.418 160.667,117.921 152.164,126.425 			"/>
			<polyline stroke="#000000" stroke-width="0.001" stroke-miterlimit="10" points="170.079,126.425 161.575,117.921 
				170.079,109.418 178.583,117.921 170.079,126.425 			"/>
			<polyline stroke="#000000" stroke-width="0.001" stroke-miterlimit="10" points="187.994,126.425 179.49,117.921 
				187.994,109.418 196.498,117.921 187.994,126.425 			"/>
			<polyline stroke="#000000" stroke-width="0.001" stroke-miterlimit="10" points="205.909,126.425 197.405,117.921 
				205.909,109.418 214.413,117.921 205.909,126.425 			"/>
			<polyline stroke="#000000" stroke-width="0.001" stroke-miterlimit="10" points="223.823,126.425 215.319,117.921 
				223.823,109.418 232.327,117.921 223.823,126.425 			"/>
			<polyline stroke="#000000" stroke-width="0.001" stroke-miterlimit="10" points="241.738,126.425 233.234,117.921 
				241.738,109.418 250.242,117.921 241.738,126.425 			"/>
			<rect x="98.419" y="117.425" stroke="#000000" stroke-width="0.001" stroke-miterlimit="10" width="143.32" height="0.992"/>
			
				<rect x="92.406" y="129.823" transform="matrix(0.7071 -0.7071 0.7071 0.7071 -67.2239 109.3735)" stroke="#000000" stroke-width="0.001" stroke-miterlimit="10" width="12.026" height="12.026"/>
			<polyline stroke="#000000" stroke-width="0.001" stroke-miterlimit="10" points="116.333,144.34 107.83,135.836 116.333,127.333 
				124.837,135.836 116.333,144.34 			"/>
			<polyline stroke="#000000" stroke-width="0.001" stroke-miterlimit="10" points="134.249,144.34 125.745,135.836 
				134.249,127.333 142.752,135.836 134.249,144.34 			"/>
			<polyline stroke="#000000" stroke-width="0.001" stroke-miterlimit="10" points="152.164,144.34 143.66,135.836 152.164,127.333 
				160.667,135.836 152.164,144.34 			"/>
			<polyline stroke="#000000" stroke-width="0.001" stroke-miterlimit="10" points="170.079,144.34 161.575,135.836 
				170.079,127.333 178.583,135.836 170.079,144.34 			"/>
			<polyline stroke="#000000" stroke-width="0.001" stroke-miterlimit="10" points="187.994,144.34 179.49,135.836 187.994,127.333 
				196.498,135.836 187.994,144.34 			"/>
			<polyline stroke="#000000" stroke-width="0.001" stroke-miterlimit="10" points="205.909,144.34 197.405,135.836 
				205.909,127.333 214.413,135.836 205.909,144.34 			"/>
			<polyline stroke="#000000" stroke-width="0.001" stroke-miterlimit="10" points="223.823,144.34 215.319,135.836 
				223.823,127.333 232.327,135.836 223.823,144.34 			"/>
			<polyline stroke="#000000" stroke-width="0.001" stroke-miterlimit="10" points="241.738,144.34 233.234,135.836 
				241.738,127.333 250.242,135.836 241.738,144.34 			"/>
			<rect x="98.419" y="135.34" stroke="#000000" stroke-width="0.001" stroke-miterlimit="10" width="143.32" height="0.992"/>
			
				<rect x="92.406" y="147.738" transform="matrix(0.7071 -0.7071 0.7071 0.7071 -79.891 114.6202)" stroke="#000000" stroke-width="0.001" stroke-miterlimit="10" width="12.026" height="12.026"/>
			<polyline stroke="#000000" stroke-width="0.001" stroke-miterlimit="10" points="116.333,162.254 107.83,153.751 
				116.333,145.248 124.837,153.751 116.333,162.254 			"/>
			<polyline stroke="#000000" stroke-width="0.001" stroke-miterlimit="10" points="134.249,162.254 125.745,153.751 
				134.249,145.248 142.752,153.751 134.249,162.254 			"/>
			<polyline stroke="#000000" stroke-width="0.001" stroke-miterlimit="10" points="152.164,162.254 143.66,153.751 
				152.164,145.248 160.667,153.751 152.164,162.254 			"/>
			<polyline stroke="#000000" stroke-width="0.001" stroke-miterlimit="10" points="170.079,162.254 161.575,153.751 
				170.079,145.248 178.583,153.751 170.079,162.254 			"/>
			<polyline stroke="#000000" stroke-width="0.001" stroke-miterlimit="10" points="187.994,162.254 179.49,153.751 
				187.994,145.248 196.498,153.751 187.994,162.254 			"/>
			<polyline stroke="#000000" stroke-width="0.001" stroke-miterlimit="10" points="205.909,162.254 197.405,153.751 
				205.909,145.248 214.413,153.751 205.909,162.254 			"/>
			<polyline stroke="#000000" stroke-width="0.001" stroke-miterlimit="10" points="223.823,162.254 215.319,153.751 
				223.823,145.248 232.327,153.751 223.823,162.254 			"/>
			<polyline stroke="#000000" stroke-width="0.001" stroke-miterlimit="10" points="241.738,162.254 233.234,153.751 
				241.738,145.248 250.242,153.751 241.738,162.254 			"/>
			<rect x="98.419" y="153.255" stroke="#000000" stroke-width="0.001" stroke-miterlimit="10" width="143.32" height="0.992"/>
			
				<rect x="92.406" y="22.334" transform="matrix(0.7071 -0.7071 0.7071 0.7071 8.7807 77.8927)" stroke="#000000" stroke-width="0.001" stroke-miterlimit="10" width="12.026" height="12.026"/>
			<polyline stroke="#000000" stroke-width="0.001" stroke-miterlimit="10" points="116.333,36.85 107.83,28.347 116.333,19.843 
				124.837,28.347 116.333,36.85 			"/>
			<polyline stroke="#000000" stroke-width="0.001" stroke-miterlimit="10" points="134.249,36.85 125.745,28.347 134.249,19.843 
				142.752,28.347 134.249,36.85 			"/>
			<polyline stroke="#000000" stroke-width="0.001" stroke-miterlimit="10" points="152.164,36.85 143.66,28.347 152.164,19.843 
				160.667,28.347 152.164,36.85 			"/>
			<polyline stroke="#000000" stroke-width="0.001" stroke-miterlimit="10" points="170.079,36.85 161.575,28.347 170.079,19.843 
				178.583,28.347 170.079,36.85 			"/>
			<polyline stroke="#000000" stroke-width="0.001" stroke-miterlimit="10" points="187.994,36.85 179.49,28.347 187.994,19.843 
				196.498,28.347 187.994,36.85 			"/>
			<polyline stroke="#000000" stroke-width="0.001" stroke-miterlimit="10" points="205.909,36.85 197.405,28.347 205.909,19.843 
				214.413,28.347 205.909,36.85 			"/>
			<polyline stroke="#000000" stroke-width="0.001" stroke-miterlimit="10" points="223.823,36.85 215.319,28.347 223.823,19.843 
				232.327,28.347 223.823,36.85 			"/>
			<polyline stroke="#000000" stroke-width="0.001" stroke-miterlimit="10" points="241.738,36.85 233.234,28.347 241.738,19.843 
				250.242,28.347 241.738,36.85 			"/>
			<rect x="98.419" y="27.851" stroke="#000000" stroke-width="0.001" stroke-miterlimit="10" width="143.32" height="0.992"/>
		</g>
		<g>
			<g>
				<rect x="99.888" y="324.567" fill="#010202" width="1.486" height="14.173"/>
			</g>
			<g>
				<rect x="102.722" y="324.567" fill="#010202" width="1.486" height="14.173"/>
			</g>
			<g>
				<rect x="77.209" y="324.567" fill="#010202" width="1.486" height="14.173"/>
			</g>
			<g>
				<rect x="82.88" y="324.567" fill="#010202" width="1.486" height="14.173"/>
			</g>
			<g>
				<rect x="85.713" y="324.567" fill="#010202" width="1.487" height="14.173"/>
			</g>
			<g>
				<rect x="91.384" y="324.567" fill="#010202" width="1.486" height="14.173"/>
			</g>
			<g>
				<rect x="94.218" y="324.567" fill="#010202" width="1.487" height="14.173"/>
			</g>
			<g>
				<rect x="51.698" y="324.567" fill="#010202" width="1.486" height="14.173"/>
			</g>
			<g>
				<rect x="57.368" y="324.567" fill="#010202" width="1.486" height="14.173"/>
			</g>
			<g>
				<rect x="65.872" y="324.567" fill="#010202" width="1.486" height="14.173"/>
			</g>
			<g>
				<rect x="68.706" y="324.567" fill="#010202" width="1.486" height="14.173"/>
			</g>
			<g>
				<rect x="74.376" y="324.567" fill="#010202" width="1.486" height="14.173"/>
			</g>
			<g>
				<rect x="60.202" y="324.567" fill="#010202" width="1.486" height="14.173"/>
			</g>
			<g>
				<rect x="48.863" y="324.567" fill="#010202" width="1.487" height="14.173"/>
			</g>
			<g>
				<rect x="97.054" y="324.567" fill="#010202" width="1.486" height="14.173"/>
			</g>
			<g>
				<rect x="71.542" y="324.567" fill="#010202" width="1.485" height="14.173"/>
			</g>
			<g>
				<rect x="80.045" y="324.567" fill="#010202" width="1.487" height="14.173"/>
			</g>
			<g>
				<rect x="88.55" y="324.567" fill="#010202" width="1.486" height="14.173"/>
			</g>
			<g>
				<rect x="63.038" y="324.567" fill="#010202" width="1.486" height="14.173"/>
			</g>
			<g>
				<rect x="54.534" y="324.567" fill="#010202" width="1.486" height="14.173"/>
			</g>
		</g>
		<polyline fill="none" stroke="#000000" stroke-width="1.5" stroke-miterlimit="10" points="72.285,331.653 72.285,181.417 
			98.419,153.751 		"/>
		<polyline fill="none" stroke="#000000" stroke-width="1.5" stroke-miterlimit="10" points="52.441,331.653 52.441,68.031 
			97.419,28.347 		"/>
		<polyline fill="none" stroke="#000000" stroke-width="1.5" stroke-miterlimit="10" points="55.277,331.653 55.275,85.04 
			98.419,46.261 		"/>
		<polyline fill="none" stroke="#000000" stroke-width="1.5" stroke-miterlimit="10" points="58.111,331.653 58.11,102.047 
			98.419,64.176 		"/>
		<polyline fill="none" stroke="#000000" stroke-width="1.5" stroke-miterlimit="10" points="60.945,331.653 60.945,119.055 
			98.419,82.091 		"/>
		<polyline fill="none" stroke="#000000" stroke-width="1.5" stroke-miterlimit="10" points="63.781,331.653 63.779,136.063 
			98.419,100.006 		"/>
		<polyline fill="none" stroke="#000000" stroke-width="1.5" stroke-miterlimit="10" points="66.615,331.653 66.614,150.236 
			98.419,117.921 		"/>
		<polyline fill="none" stroke="#000000" stroke-width="1.5" stroke-miterlimit="10" points="69.449,331.653 69.449,164.41 
			98.419,135.836 		"/>
	</g>
</g>
<g id="Layer_2">
	<g>
		<g>
			
				<rect x="409.834" y="156.695" transform="matrix(-0.7071 -0.7071 0.7071 -0.7071 594.8193 571.8182)" stroke="#000000" stroke-width="0.001" stroke-miterlimit="10" width="12.026" height="12.026"/>
			<polyline stroke="#000000" stroke-width="0.001" stroke-miterlimit="10" points="424.35,144.793 415.847,153.297 
				407.343,144.793 415.847,136.29 424.35,144.793 			"/>
			<polyline stroke="#000000" stroke-width="0.001" stroke-miterlimit="10" points="424.35,126.878 415.847,135.382 
				407.343,126.878 415.847,118.375 424.35,126.878 			"/>
			<polyline stroke="#000000" stroke-width="0.001" stroke-miterlimit="10" points="424.35,108.963 415.847,117.467 
				407.343,108.963 415.847,100.459 424.35,108.963 			"/>
			<polyline stroke="#000000" stroke-width="0.001" stroke-miterlimit="10" points="424.35,91.048 415.847,99.552 407.343,91.048 
				415.847,82.544 424.35,91.048 			"/>
			<polyline stroke="#000000" stroke-width="0.001" stroke-miterlimit="10" points="424.35,73.133 415.847,81.637 407.343,73.133 
				415.847,64.629 424.35,73.133 			"/>
			<polyline stroke="#000000" stroke-width="0.001" stroke-miterlimit="10" points="424.35,55.218 415.847,63.722 407.343,55.218 
				415.847,46.714 424.35,55.218 			"/>
			<polyline stroke="#000000" stroke-width="0.001" stroke-miterlimit="10" points="424.35,37.304 415.847,45.808 407.343,37.304 
				415.847,28.8 424.35,37.304 			"/>
			<polyline stroke="#000000" stroke-width="0.001" stroke-miterlimit="10" points="424.35,19.389 415.847,27.893 407.343,19.389 
				415.847,10.885 424.35,19.389 			"/>
			<rect x="415.351" y="19.388" stroke="#000000" stroke-width="0.001" stroke-miterlimit="10" width="0.992" height="143.32"/>
			
				<rect x="427.748" y="156.695" transform="matrix(-0.7071 -0.7071 0.7071 -0.7071 625.424 584.4751)" stroke="#000000" stroke-width="0.001" stroke-miterlimit="10" width="12.026" height="12.026"/>
			<polyline stroke="#000000" stroke-width="0.001" stroke-miterlimit="10" points="442.265,144.793 433.761,153.297 
				425.258,144.793 433.761,136.29 442.265,144.793 			"/>
			<polyline stroke="#000000" stroke-width="0.001" stroke-miterlimit="10" points="442.265,126.878 433.761,135.382 
				425.258,126.878 433.761,118.375 442.265,126.878 			"/>
			<polyline stroke="#000000" stroke-width="0.001" stroke-miterlimit="10" points="442.265,108.963 433.761,117.467 
				425.258,108.963 433.761,100.459 442.265,108.963 			"/>
			<polyline stroke="#000000" stroke-width="0.001" stroke-miterlimit="10" points="442.265,91.048 433.761,99.552 425.258,91.048 
				433.761,82.544 442.265,91.048 			"/>
			<polyline stroke="#000000" stroke-width="0.001" stroke-miterlimit="10" points="442.265,73.133 433.761,81.637 425.258,73.133 
				433.761,64.629 442.265,73.133 			"/>
			<polyline stroke="#000000" stroke-width="0.001" stroke-miterlimit="10" points="442.265,55.218 433.761,63.722 425.258,55.218 
				433.761,46.714 442.265,55.218 			"/>
			<polyline stroke="#000000" stroke-width="0.001" stroke-miterlimit="10" points="442.265,37.304 433.761,45.808 425.258,37.304 
				433.761,28.8 442.265,37.304 			"/>
			<polyline stroke="#000000" stroke-width="0.001" stroke-miterlimit="10" points="442.265,19.389 433.761,27.893 425.258,19.389 
				433.761,10.885 442.265,19.389 			"/>
			<rect x="433.265" y="19.388" stroke="#000000" stroke-width="0.001" stroke-miterlimit="10" width="0.992" height="143.32"/>
			
				<rect x="445.663" y="156.695" transform="matrix(-0.7071 -0.7071 0.7071 -0.7071 656.0068 597.1429)" stroke="#000000" stroke-width="0.001" stroke-miterlimit="10" width="12.026" height="12.026"/>
			<polyline stroke="#000000" stroke-width="0.001" stroke-miterlimit="10" points="460.18,144.793 451.676,153.297 
				443.173,144.793 451.676,136.29 460.18,144.793 			"/>
			<polyline stroke="#000000" stroke-width="0.001" stroke-miterlimit="10" points="460.18,126.878 451.676,135.382 
				443.173,126.878 451.676,118.375 460.18,126.878 			"/>
			<polyline stroke="#000000" stroke-width="0.001" stroke-miterlimit="10" points="460.18,108.963 451.676,117.467 
				443.173,108.963 451.676,100.459 460.18,108.963 			"/>
			<polyline stroke="#000000" stroke-width="0.001" stroke-miterlimit="10" points="460.18,91.048 451.676,99.552 443.173,91.048 
				451.676,82.544 460.18,91.048 			"/>
			<polyline stroke="#000000" stroke-width="0.001" stroke-miterlimit="10" points="460.18,73.133 451.676,81.637 443.173,73.133 
				451.676,64.629 460.18,73.133 			"/>
			<polyline stroke="#000000" stroke-width="0.001" stroke-miterlimit="10" points="460.18,55.218 451.676,63.722 443.173,55.218 
				451.676,46.714 460.18,55.218 			"/>
			<polyline stroke="#000000" stroke-width="0.001" stroke-miterlimit="10" points="460.18,37.304 451.676,45.808 443.173,37.304 
				451.676,28.8 460.18,37.304 			"/>
			<polyline stroke="#000000" stroke-width="0.001" stroke-miterlimit="10" points="460.18,19.389 451.676,27.893 443.173,19.389 
				451.676,10.885 460.18,19.389 			"/>
			<rect x="451.18" y="19.388" stroke="#000000" stroke-width="0.001" stroke-miterlimit="10" width="0.992" height="143.32"/>
			
				<rect x="463.578" y="156.695" transform="matrix(-0.7071 -0.7071 0.7071 -0.7071 686.5641 609.8232)" stroke="#000000" stroke-width="0.001" stroke-miterlimit="10" width="12.026" height="12.026"/>
			<polyline stroke="#000000" stroke-width="0.001" stroke-miterlimit="10" points="478.094,144.793 469.591,153.297 
				461.088,144.793 469.591,136.29 478.094,144.793 			"/>
			<polyline stroke="#000000" stroke-width="0.001" stroke-miterlimit="10" points="478.094,126.878 469.591,135.382 
				461.088,126.878 469.591,118.375 478.094,126.878 			"/>
			<polyline stroke="#000000" stroke-width="0.001" stroke-miterlimit="10" points="478.094,108.963 469.591,117.467 
				461.088,108.963 469.591,100.459 478.094,108.963 			"/>
			<polyline stroke="#000000" stroke-width="0.001" stroke-miterlimit="10" points="478.094,91.048 469.591,99.552 461.088,91.048 
				469.591,82.544 478.094,91.048 			"/>
			<polyline stroke="#000000" stroke-width="0.001" stroke-miterlimit="10" points="478.094,73.133 469.591,81.637 461.088,73.133 
				469.591,64.629 478.094,73.133 			"/>
			<polyline stroke="#000000" stroke-width="0.001" stroke-miterlimit="10" points="478.094,55.218 469.591,63.722 461.088,55.218 
				469.591,46.714 478.094,55.218 			"/>
			<polyline stroke="#000000" stroke-width="0.001" stroke-miterlimit="10" points="478.094,37.304 469.591,45.808 461.088,37.304 
				469.591,28.8 478.094,37.304 			"/>
			<polyline stroke="#000000" stroke-width="0.001" stroke-miterlimit="10" points="478.094,19.389 469.591,27.893 461.088,19.389 
				469.591,10.885 478.094,19.389 			"/>
			<rect x="469.095" y="19.388" stroke="#000000" stroke-width="0.001" stroke-miterlimit="10" width="0.992" height="143.32"/>
			
				<rect x="481.493" y="156.695" transform="matrix(-0.7071 -0.7071 0.7071 -0.7071 717.1726 622.4786)" stroke="#000000" stroke-width="0.001" stroke-miterlimit="10" width="12.026" height="12.026"/>
			<polyline stroke="#000000" stroke-width="0.001" stroke-miterlimit="10" points="496.01,144.793 487.506,153.297 
				479.002,144.793 487.506,136.29 496.01,144.793 			"/>
			<polyline stroke="#000000" stroke-width="0.001" stroke-miterlimit="10" points="496.01,126.878 487.506,135.382 
				479.002,126.878 487.506,118.375 496.01,126.878 			"/>
			<polyline stroke="#000000" stroke-width="0.001" stroke-miterlimit="10" points="496.01,108.963 487.506,117.467 
				479.002,108.963 487.506,100.459 496.01,108.963 			"/>
			<polyline stroke="#000000" stroke-width="0.001" stroke-miterlimit="10" points="496.01,91.048 487.506,99.552 479.002,91.048 
				487.506,82.544 496.01,91.048 			"/>
			<polyline stroke="#000000" stroke-width="0.001" stroke-miterlimit="10" points="496.01,73.133 487.506,81.637 479.002,73.133 
				487.506,64.629 496.01,73.133 			"/>
			<polyline stroke="#000000" stroke-width="0.001" stroke-miterlimit="10" points="496.01,55.218 487.506,63.722 479.002,55.218 
				487.506,46.714 496.01,55.218 			"/>
			<polyline stroke="#000000" stroke-width="0.001" stroke-miterlimit="10" points="496.01,37.304 487.506,45.808 479.002,37.304 
				487.506,28.8 496.01,37.304 			"/>
			<polyline stroke="#000000" stroke-width="0.001" stroke-miterlimit="10" points="496.01,19.389 487.506,27.893 479.002,19.389 
				487.506,10.885 496.01,19.389 			"/>
			<rect x="487.01" y="19.388" stroke="#000000" stroke-width="0.001" stroke-miterlimit="10" width="0.992" height="143.32"/>
			
				<rect x="499.407" y="156.695" transform="matrix(-0.7071 -0.7071 0.7071 -0.7071 747.7538 635.1458)" stroke="#000000" stroke-width="0.001" stroke-miterlimit="10" width="12.026" height="12.026"/>
			<polyline stroke="#000000" stroke-width="0.001" stroke-miterlimit="10" points="513.924,144.793 505.42,153.297 
				496.918,144.793 505.42,136.29 513.924,144.793 			"/>
			<polyline stroke="#000000" stroke-width="0.001" stroke-miterlimit="10" points="513.924,126.878 505.42,135.382 
				496.918,126.878 505.42,118.375 513.924,126.878 			"/>
			<polyline stroke="#000000" stroke-width="0.001" stroke-miterlimit="10" points="513.924,108.963 505.42,117.467 
				496.918,108.963 505.42,100.459 513.924,108.963 			"/>
			<polyline stroke="#000000" stroke-width="0.001" stroke-miterlimit="10" points="513.924,91.048 505.42,99.552 496.918,91.048 
				505.42,82.544 513.924,91.048 			"/>
			<polyline stroke="#000000" stroke-width="0.001" stroke-miterlimit="10" points="513.924,73.133 505.42,81.637 496.918,73.133 
				505.42,64.629 513.924,73.133 			"/>
			<polyline stroke="#000000" stroke-width="0.001" stroke-miterlimit="10" points="513.924,55.218 505.42,63.722 496.918,55.218 
				505.42,46.714 513.924,55.218 			"/>
			<polyline stroke="#000000" stroke-width="0.001" stroke-miterlimit="10" points="513.924,37.304 505.42,45.808 496.918,37.304 
				505.42,28.8 513.924,37.304 			"/>
			<polyline stroke="#000000" stroke-width="0.001" stroke-miterlimit="10" points="513.924,19.389 505.42,27.893 496.918,19.389 
				505.42,10.885 513.924,19.389 			"/>
			<rect x="504.924" y="19.388" stroke="#000000" stroke-width="0.001" stroke-miterlimit="10" width="0.992" height="143.32"/>
			
				<rect x="517.323" y="156.695" transform="matrix(-0.7071 -0.7071 0.7071 -0.7071 778.3384 647.8143)" stroke="#000000" stroke-width="0.001" stroke-miterlimit="10" width="12.026" height="12.026"/>
			<polyline stroke="#000000" stroke-width="0.001" stroke-miterlimit="10" points="531.84,144.793 523.336,153.297 
				514.832,144.793 523.336,136.29 531.84,144.793 			"/>
			<polyline stroke="#000000" stroke-width="0.001" stroke-miterlimit="10" points="531.84,126.878 523.336,135.382 
				514.832,126.878 523.336,118.375 531.84,126.878 			"/>
			<polyline stroke="#000000" stroke-width="0.001" stroke-miterlimit="10" points="531.84,108.963 523.336,117.467 
				514.832,108.963 523.336,100.459 531.84,108.963 			"/>
			<polyline stroke="#000000" stroke-width="0.001" stroke-miterlimit="10" points="531.84,91.048 523.336,99.552 514.832,91.048 
				523.336,82.544 531.84,91.048 			"/>
			<polyline stroke="#000000" stroke-width="0.001" stroke-miterlimit="10" points="531.84,73.133 523.336,81.637 514.832,73.133 
				523.336,64.629 531.84,73.133 			"/>
			<polyline stroke="#000000" stroke-width="0.001" stroke-miterlimit="10" points="531.84,55.218 523.336,63.722 514.832,55.218 
				523.336,46.714 531.84,55.218 			"/>
			<polyline stroke="#000000" stroke-width="0.001" stroke-miterlimit="10" points="531.84,37.304 523.336,45.808 514.832,37.304 
				523.336,28.8 531.84,37.304 			"/>
			<polyline stroke="#000000" stroke-width="0.001" stroke-miterlimit="10" points="531.84,19.389 523.336,27.893 514.832,19.389 
				523.336,10.885 531.84,19.389 			"/>
			<rect x="522.84" y="19.388" stroke="#000000" stroke-width="0.001" stroke-miterlimit="10" width="0.992" height="143.32"/>
			
				<rect x="535.237" y="156.695" transform="matrix(-0.7071 -0.7071 0.7071 -0.7071 808.9196 660.4814)" stroke="#000000" stroke-width="0.001" stroke-miterlimit="10" width="12.026" height="12.026"/>
			<polyline stroke="#000000" stroke-width="0.001" stroke-miterlimit="10" points="549.754,144.793 541.25,153.297 
				532.746,144.793 541.25,136.29 549.754,144.793 			"/>
			<polyline stroke="#000000" stroke-width="0.001" stroke-miterlimit="10" points="549.754,126.878 541.25,135.382 
				532.746,126.878 541.25,118.375 549.754,126.878 			"/>
			<polyline stroke="#000000" stroke-width="0.001" stroke-miterlimit="10" points="549.754,108.963 541.25,117.467 
				532.746,108.963 541.25,100.459 549.754,108.963 			"/>
			<polyline stroke="#000000" stroke-width="0.001" stroke-miterlimit="10" points="549.754,91.048 541.25,99.552 532.746,91.048 
				541.25,82.544 549.754,91.048 			"/>
			<polyline stroke="#000000" stroke-width="0.001" stroke-miterlimit="10" points="549.754,73.133 541.25,81.637 532.746,73.133 
				541.25,64.629 549.754,73.133 			"/>
			<polyline stroke="#000000" stroke-width="0.001" stroke-miterlimit="10" points="549.754,55.218 541.25,63.722 532.746,55.218 
				541.25,46.714 549.754,55.218 			"/>
			<polyline stroke="#000000" stroke-width="0.001" stroke-miterlimit="10" points="549.754,37.304 541.25,45.808 532.746,37.304 
				541.25,28.8 549.754,37.304 			"/>
			<polyline stroke="#000000" stroke-width="0.001" stroke-miterlimit="10" points="549.754,19.389 541.25,27.893 532.746,19.389 
				541.25,10.885 549.754,19.389 			"/>
			<rect x="540.754" y="19.388" stroke="#000000" stroke-width="0.001" stroke-miterlimit="10" width="0.992" height="143.32"/>
			
				<rect x="409.834" y="156.695" transform="matrix(-0.7071 -0.7071 0.7071 -0.7071 594.8193 571.8182)" stroke="#000000" stroke-width="0.001" stroke-miterlimit="10" width="12.026" height="12.026"/>
			<polyline stroke="#000000" stroke-width="0.001" stroke-miterlimit="10" points="424.35,144.793 415.847,153.297 
				407.343,144.793 415.847,136.29 424.35,144.793 			"/>
			<polyline stroke="#000000" stroke-width="0.001" stroke-miterlimit="10" points="424.35,126.878 415.847,135.382 
				407.343,126.878 415.847,118.375 424.35,126.878 			"/>
			<polyline stroke="#000000" stroke-width="0.001" stroke-miterlimit="10" points="424.35,108.963 415.847,117.467 
				407.343,108.963 415.847,100.459 424.35,108.963 			"/>
			<polyline stroke="#000000" stroke-width="0.001" stroke-miterlimit="10" points="424.35,91.048 415.847,99.552 407.343,91.048 
				415.847,82.544 424.35,91.048 			"/>
			<polyline stroke="#000000" stroke-width="0.001" stroke-miterlimit="10" points="424.35,73.133 415.847,81.637 407.343,73.133 
				415.847,64.629 424.35,73.133 			"/>
			<polyline stroke="#000000" stroke-width="0.001" stroke-miterlimit="10" points="424.35,55.218 415.847,63.722 407.343,55.218 
				415.847,46.714 424.35,55.218 			"/>
			<polyline stroke="#000000" stroke-width="0.001" stroke-miterlimit="10" points="424.35,37.304 415.847,45.808 407.343,37.304 
				415.847,28.8 424.35,37.304 			"/>
			<polyline stroke="#000000" stroke-width="0.001" stroke-miterlimit="10" points="424.35,19.389 415.847,27.893 407.343,19.389 
				415.847,10.885 424.35,19.389 			"/>
			<rect x="415.351" y="19.388" stroke="#000000" stroke-width="0.001" stroke-miterlimit="10" width="0.992" height="143.32"/>
		</g>
		<g>
			<g>
				<rect x="408.357" y="324.567" fill="#010202" width="1.486" height="14.173"/>
			</g>
			<g>
				<rect x="411.191" y="324.567" fill="#010202" width="1.486" height="14.173"/>
			</g>
			<g>
				<rect x="385.679" y="324.567" fill="#010202" width="1.486" height="14.173"/>
			</g>
			<g>
				<rect x="391.35" y="324.567" fill="#010202" width="1.486" height="14.173"/>
			</g>
			<g>
				<rect x="394.183" y="324.567" fill="#010202" width="1.487" height="14.173"/>
			</g>
			<g>
				<rect x="399.854" y="324.567" fill="#010202" width="1.486" height="14.173"/>
			</g>
			<g>
				<rect x="402.688" y="324.567" fill="#010202" width="1.487" height="14.173"/>
			</g>
			<g>
				<rect x="360.168" y="324.567" fill="#010202" width="1.486" height="14.173"/>
			</g>
			<g>
				<rect x="365.838" y="324.567" fill="#010202" width="1.486" height="14.173"/>
			</g>
			<g>
				<rect x="374.342" y="324.567" fill="#010202" width="1.486" height="14.173"/>
			</g>
			<g>
				<rect x="377.176" y="324.567" fill="#010202" width="1.486" height="14.173"/>
			</g>
			<g>
				<rect x="382.846" y="324.567" fill="#010202" width="1.486" height="14.173"/>
			</g>
			<g>
				<rect x="368.672" y="324.567" fill="#010202" width="1.486" height="14.173"/>
			</g>
			<g>
				<rect x="357.333" y="324.567" fill="#010202" width="1.487" height="14.173"/>
			</g>
			<g>
				<rect x="405.523" y="324.567" fill="#010202" width="1.486" height="14.173"/>
			</g>
			<g>
				<rect x="380.012" y="324.567" fill="#010202" width="1.485" height="14.173"/>
			</g>
			<g>
				<rect x="388.515" y="324.567" fill="#010202" width="1.487" height="14.173"/>
			</g>
			<g>
				<rect x="397.02" y="324.567" fill="#010202" width="1.486" height="14.173"/>
			</g>
			<g>
				<rect x="371.508" y="324.567" fill="#010202" width="1.486" height="14.173"/>
			</g>
			<g>
				<rect x="363.004" y="324.567" fill="#010202" width="1.486" height="14.173"/>
			</g>
		</g>
		<polyline fill="none" stroke="#000000" stroke-width="1.5" stroke-miterlimit="10" points="409.101,331.653 409.102,300.473 
			541.25,162.708 		"/>
		<path fill="none" stroke="#000000" stroke-width="1.5" stroke-miterlimit="10" d="M505.42,162.708"/>
		<path fill="none" stroke="#000000" stroke-width="1.5" stroke-miterlimit="10" d="M487.506,162.708"/>
		<polyline fill="none" stroke="#000000" stroke-width="1.5" stroke-miterlimit="10" points="406.267,331.653 406.268,284.667 
			523.336,162.708 		"/>
		<polyline fill="none" stroke="#000000" stroke-width="1.5" stroke-miterlimit="10" points="403.432,331.653 403.433,269.292 
			505.42,162.708 		"/>
		<polyline fill="none" stroke="#000000" stroke-width="1.5" stroke-miterlimit="10" points="400.597,331.653 400.597,255.118 
			487.506,162.708 		"/>
		<polyline fill="none" stroke="#000000" stroke-width="1.5" stroke-miterlimit="10" points="397.763,331.653 397.763,240.875 
			469.591,162.708 		"/>
		<polyline fill="none" stroke="#000000" stroke-width="1.5" stroke-miterlimit="10" points="394.926,331.653 394.929,223.937 
			451.676,162.708 		"/>
		<polyline fill="none" stroke="#000000" stroke-width="1.5" stroke-miterlimit="10" points="392.093,331.653 392.094,206.929 
			433.761,162.708 		"/>
		<polyline fill="none" stroke="#000000" stroke-width="1.5" stroke-miterlimit="10" points="389.258,331.653 389.259,189.921 
			415.846,162.708 		"/>
	</g>
</g>
</svg>
